<?xml version="1.0" standalone="no"?>
<!DOCTYPE svg PUBLIC "-//W3C//DTD SVG 20010904//EN"
 "http://www.w3.org/TR/2001/REC-SVG-20010904/DTD/svg10.dtd">
<svg version="1.0" xmlns="http://www.w3.org/2000/svg"
 width="2250.000000pt" height="2250.000000pt" viewBox="0 0 2250.000000 2250.000000"
 preserveAspectRatio="xMidYMid meet">
<metadata>
Created by potrace 1.14, written by Peter Selinger 2001-2017
</metadata>
<g transform="translate(0.000000,2250.000000) scale(0.100000,-0.100000)"
fill="#000000" stroke="none">
<path d="M11887 22204 c-1 -1 -99 -5 -217 -8 -118 -4 -231 -8 -250 -11 -19 -2
-70 -6 -113 -10 -43 -4 -93 -8 -110 -11 -18 -2 -54 -6 -82 -9 -75 -9 -118 -14
-140 -19 -11 -2 -42 -7 -68 -10 -27 -4 -57 -9 -67 -11 -9 -2 -33 -6 -51 -9
-19 -3 -45 -8 -59 -11 -14 -3 -37 -7 -52 -10 -84 -16 -305 -69 -430 -104 -386
-108 -783 -269 -1148 -467 -146 -78 -451 -269 -458 -286 -2 -5 -10 -8 -17 -8
-7 0 -15 -3 -17 -7 -1 -5 -43 -37 -93 -73 -211 -151 -395 -310 -616 -530 -241
-239 -419 -449 -610 -720 -73 -104 -219 -326 -219 -334 0 -2 -17 -33 -38 -67
-107 -177 -254 -472 -338 -679 -19 -47 -39 -94 -44 -105 -12 -25 -70 -185
-115 -319 -32 -97 -111 -367 -119 -410 -2 -12 -13 -57 -24 -101 -23 -90 -51
-231 -68 -335 -3 -19 -7 -45 -9 -57 -4 -24 -24 -162 -30 -208 -2 -16 -7 -64
-11 -105 -3 -41 -8 -91 -10 -110 -22 -202 -21 -807 1 -942 2 -13 7 -57 10 -98
3 -41 8 -86 10 -100 1 -14 6 -49 10 -79 6 -45 21 -137 61 -366 11 -59 75 -326
85 -353 6 -15 10 -29 10 -32 -2 -18 50 -185 109 -354 81 -230 246 -599 357
-796 11 -19 35 -62 53 -95 59 -107 211 -347 308 -485 79 -112 252 -342 272
-360 3 -3 27 -32 55 -65 27 -33 52 -62 55 -65 3 -3 39 -43 80 -90 82 -93 369
-383 467 -470 424 -382 896 -716 1298 -918 241 -121 415 -174 447 -135 22 26
-16 72 -282 341 -281 283 -343 349 -515 547 -138 159 -353 438 -498 650 -53
77 -100 145 -105 150 -53 69 -262 407 -386 628 -53 93 -224 443 -271 552 -26
61 -53 124 -60 141 -82 182 -268 761 -310 962 -2 9 -15 66 -29 126 -14 59 -29
122 -32 140 -3 17 -16 90 -29 161 -13 72 -26 150 -29 175 -6 42 -13 90 -21
150 -25 176 -46 508 -48 740 0 122 11 420 18 490 2 19 6 64 9 100 7 78 17 169
21 191 2 9 6 40 10 69 4 29 9 62 11 74 2 11 6 38 9 61 3 22 10 65 16 95 6 30
12 66 15 80 8 44 25 122 46 210 11 47 21 92 23 101 2 9 18 69 35 134 17 65 33
127 35 137 2 10 6 22 9 26 3 5 7 19 10 33 7 39 91 304 135 426 130 362 304
709 500 998 59 88 186 257 229 307 328 381 621 634 1008 875 303 189 764 388
1139 493 177 50 485 121 625 145 19 3 85 15 145 25 61 11 126 22 145 24 152
22 190 27 225 30 22 3 69 8 105 11 36 4 78 9 94 10 204 25 892 25 1092 0 16
-2 63 -6 104 -10 78 -6 131 -12 190 -20 19 -3 51 -7 70 -9 102 -13 275 -38
350 -51 237 -43 357 -58 365 -46 20 34 -220 142 -510 230 -93 28 -308 84 -365
95 -14 2 -72 14 -130 26 -119 24 -244 46 -310 55 -25 3 -56 8 -70 10 -14 2
-52 7 -85 11 -33 3 -68 8 -77 10 -10 1 -59 6 -110 10 -51 3 -101 8 -111 10
-15 2 -122 7 -425 17 -24 1 -44 1 -45 1z"/>
<path d="M13847 21444 c-1 -1 -38 -5 -82 -8 -44 -4 -87 -9 -95 -11 -8 -2 -31
-7 -50 -10 -153 -26 -349 -93 -380 -130 -15 -18 13 -23 130 -23 97 -1 267 -11
304 -18 12 -2 41 -7 66 -10 130 -16 458 -116 525 -160 70 -46 574 -299 740
-371 206 -91 259 -105 379 -102 217 5 457 124 651 322 102 104 164 207 125
207 -14 0 -71 -28 -135 -66 -112 -67 -269 -127 -390 -150 -63 -11 -239 -13
-292 -2 -26 5 -59 11 -73 14 -68 14 -192 79 -351 185 -97 65 -211 136 -255
159 -74 40 -230 104 -277 115 -12 2 -52 11 -88 19 -93 21 -115 25 -194 32 -60
6 -254 12 -258 8z"/>
<path d="M11909 21105 c-2 -2 -49 -6 -104 -10 -55 -3 -107 -8 -115 -10 -8 -2
-44 -7 -80 -10 -36 -3 -72 -8 -80 -10 -8 -2 -35 -7 -60 -10 -318 -43 -778
-181 -1115 -335 -810 -370 -1463 -1000 -1866 -1802 -69 -136 -180 -388 -172
-388 3 0 1 -6 -5 -13 -21 -24 -159 -458 -187 -587 -2 -8 -15 -67 -30 -130 -34
-146 -55 -260 -70 -370 -3 -25 -8 -52 -10 -60 -2 -8 -7 -44 -10 -80 -4 -36 -8
-72 -10 -81 -2 -8 -6 -49 -10 -90 -4 -41 -8 -87 -10 -104 -25 -194 -25 -924 0
-1075 2 -14 7 -56 10 -95 3 -38 8 -81 10 -95 2 -14 7 -45 10 -70 134 -992 564
-1969 1242 -2821 198 -248 262 -319 518 -574 239 -238 291 -286 465 -425 24
-19 48 -40 54 -45 6 -6 27 -22 46 -35 19 -13 37 -27 40 -30 3 -4 52 -40 110
-81 366 -261 666 -390 695 -300 8 25 -21 99 -75 191 -25 41 -51 87 -60 101 -8
14 -61 103 -117 196 -57 94 -103 174 -103 179 0 4 -6 15 -14 23 -18 19 -219
416 -265 521 -18 41 -39 89 -47 106 -100 225 -261 714 -300 913 -3 12 -12 53
-20 90 -9 36 -18 75 -20 86 -2 11 -8 43 -14 70 -15 73 -19 94 -26 139 -3 22
-7 43 -9 46 -2 3 -7 33 -10 65 -4 33 -9 63 -11 66 -1 3 -6 32 -9 65 -4 32 -8
61 -10 64 -2 3 -6 37 -10 75 -4 39 -9 79 -11 89 -2 11 -6 56 -10 100 -3 45 -7
92 -10 106 -22 142 -22 770 1 965 2 17 6 62 10 100 7 72 12 118 20 170 3 17 7
48 10 70 4 22 8 51 10 64 2 13 8 45 12 70 4 25 8 48 8 51 2 8 16 73 19 90 2 8
6 33 10 55 35 180 173 634 241 790 7 17 37 84 65 149 101 232 282 557 403 726
253 354 407 539 652 785 260 262 431 406 695 586 74 51 242 156 280 175 3 1
-7 -95 -22 -214 -15 -119 -30 -242 -34 -272 -3 -30 -9 -83 -14 -118 l-9 -63
-108 -112 c-114 -118 -224 -270 -244 -337 -25 -83 8 -73 190 59 61 45 113 81
117 81 3 0 3 -24 0 -52 -4 -29 -9 -78 -13 -108 -3 -30 -11 -90 -17 -134 l-11
-78 -85 -32 c-171 -65 -395 -192 -555 -315 -64 -48 -238 -201 -268 -236 -10
-11 -42 -45 -71 -75 -158 -164 -379 -476 -504 -710 -19 -36 -47 -87 -62 -115
-125 -233 -285 -659 -331 -880 -7 -33 -13 -64 -15 -70 -9 -44 -34 -201 -39
-250 -4 -33 -9 -73 -12 -90 -2 -16 -6 -140 -8 -275 -2 -224 3 -349 20 -470 3
-25 8 -63 11 -85 2 -22 7 -51 9 -65 3 -14 7 -41 10 -60 34 -205 118 -519 202
-745 97 -263 263 -609 396 -825 22 -36 49 -81 61 -100 11 -19 24 -36 28 -38 4
-2 8 -8 8 -13 0 -14 160 -244 237 -340 31 -39 163 -188 189 -215 24 -23 25
-29 19 -90 -3 -36 -9 -75 -11 -87 -3 -12 -7 -62 -9 -112 -4 -78 -1 -96 19
-140 25 -53 63 -93 118 -121 37 -19 141 -24 243 -11 75 10 111 15 155 21 19 3
62 8 95 12 33 3 68 8 77 9 9 2 48 7 85 10 37 4 75 8 83 10 8 2 42 7 75 10 33
4 71 8 85 10 25 4 58 8 160 21 30 3 62 8 70 9 8 2 44 6 80 10 36 3 92 10 125
15 33 5 87 12 120 16 33 3 67 8 75 9 8 2 44 6 80 10 36 4 74 9 85 11 11 2 45
6 76 9 31 3 65 7 77 10 11 2 52 7 89 10 37 4 75 8 83 10 8 2 42 7 75 11 33 3
67 8 75 9 8 2 44 6 80 10 36 4 72 8 80 10 8 2 44 6 80 10 36 3 76 8 90 10 14
3 84 11 155 20 201 24 239 29 315 40 14 2 50 7 80 10 30 3 123 15 205 25 83
11 175 22 205 25 30 3 62 8 70 10 8 2 42 6 75 10 76 8 130 14 178 20 20 3 54
7 75 10 98 12 210 26 237 30 17 2 57 7 90 11 33 3 67 8 75 9 9 2 43 6 75 10
33 4 71 8 85 10 14 2 84 11 155 20 72 8 147 17 168 20 71 9 113 15 277 35 91
11 181 23 200 25 85 12 108 15 155 20 28 3 86 10 130 16 44 5 98 12 120 15 22
2 56 6 75 9 19 3 54 7 78 10 23 3 60 7 82 10 22 3 57 7 78 10 52 6 115 14 160
20 20 3 60 7 87 10 28 3 59 7 70 9 11 2 47 7 80 10 33 4 67 9 75 11 8 2 46 6
83 10 37 3 76 8 85 10 9 1 46 6 82 10 36 4 72 9 80 10 8 2 42 6 75 9 33 4 71
9 85 11 14 2 50 6 80 10 57 7 69 8 160 21 30 4 58 7 61 6 4 -1 33 3 65 8 33 5
86 12 119 16 33 3 69 8 80 10 11 2 45 6 76 9 31 3 71 8 90 11 19 2 54 7 79 9
25 3 56 7 70 10 14 2 50 7 80 10 30 4 66 8 80 10 14 2 50 6 80 10 129 15 164
29 221 86 74 74 70 -7 67 1355 l-3 1219 -23 39 c-13 22 -411 427 -883 899
-473 473 -858 863 -857 867 2 4 60 52 129 108 169 136 439 403 439 435 0 10
-1 10 -125 -74 -167 -111 -355 -214 -549 -298 -27 -11 -50 -21 -51 -21 -2 0
-136 133 -299 296 l-296 296 78 40 c315 163 539 457 642 845 11 40 23 89 26
109 3 20 8 46 10 58 25 126 21 418 -6 390 -4 -5 -20 -53 -35 -108 -53 -197
-107 -321 -201 -461 -161 -242 -467 -459 -771 -548 l-52 -16 -389 389 c-421
421 -485 489 -326 345 49 -44 150 -132 182 -157 74 -60 65 -20 -24 107 -105
150 -220 284 -418 485 -273 278 -467 448 -831 728 -334 257 -857 559 -1282
741 -231 98 -641 236 -793 265 -14 2 -56 12 -95 20 -38 9 -108 23 -155 32
-137 24 -172 30 -285 43 -49 6 -112 13 -140 17 -54 6 -661 15 -666 9z m246
-4081 c-3 -36 -8 -73 -9 -82 -7 -35 -16 -109 -21 -162 -3 -30 -7 -64 -9 -75
-2 -11 -7 -49 -11 -85 -4 -36 -9 -73 -10 -82 -2 -9 -6 -44 -10 -77 -3 -33 -8
-69 -10 -80 -2 -11 -6 -48 -10 -83 -3 -35 -8 -70 -10 -78 -2 -8 -7 -44 -10
-80 -4 -36 -9 -73 -10 -82 -2 -9 -6 -44 -10 -77 -3 -33 -7 -68 -9 -78 -2 -10
-7 -47 -11 -83 -4 -36 -8 -72 -10 -80 -2 -8 -6 -44 -10 -80 -4 -36 -8 -72 -10
-80 -2 -8 -6 -44 -10 -80 -4 -36 -8 -72 -10 -80 -2 -8 -6 -44 -10 -80 -4 -36
-8 -72 -10 -80 -2 -8 -6 -44 -10 -80 -4 -36 -8 -72 -10 -81 -2 -8 -6 -42 -9
-75 -10 -89 -16 -146 -21 -174 -3 -14 -7 -45 -10 -70 -3 -25 -8 -61 -10 -80
-3 -19 -7 -60 -10 -90 -3 -30 -8 -66 -10 -80 -3 -14 -7 -47 -10 -75 -3 -27 -8
-63 -10 -80 -2 -16 -7 -52 -10 -80 -3 -27 -8 -66 -11 -85 -3 -19 -7 -51 -9
-70 -3 -35 -6 -54 -25 -200 -5 -41 -12 -97 -15 -125 -3 -27 -8 -63 -10 -80 -2
-16 -9 -70 -15 -120 -6 -49 -13 -103 -15 -120 -3 -16 -7 -50 -9 -75 -3 -25
-10 -76 -15 -115 -6 -38 -13 -99 -17 -135 -3 -36 -7 -67 -9 -70 -2 -3 -6 -39
-10 -79 -4 -41 -8 -82 -10 -90 -2 -15 -9 -61 -20 -151 -3 -19 -7 -59 -11 -89
-3 -30 -7 -63 -9 -73 -2 -11 -7 -49 -11 -86 -3 -36 -8 -75 -10 -87 -2 -11 -6
-42 -9 -70 -8 -71 -10 -84 -16 -89 -3 -3 -20 27 -39 67 -18 40 -57 122 -86
182 -243 517 -406 990 -488 1425 -27 140 -35 185 -42 250 -3 25 -7 56 -9 70
-26 151 -26 581 0 785 57 440 215 856 476 1247 43 64 85 125 93 135 174 217
300 350 436 459 86 69 204 154 214 154 4 0 14 7 22 15 9 8 18 15 21 15 3 0 2
-30 -2 -66z"/>
<path d="M12598 11253 c-23 -6 -23 -30 1 -70 11 -17 122 -134 248 -260 202
-202 390 -399 453 -473 11 -14 41 -47 65 -75 38 -44 74 -88 186 -225 189 -232
459 -620 656 -940 46 -74 86 -141 90 -149 4 -8 31 -58 60 -110 199 -350 400
-817 529 -1226 60 -188 159 -568 180 -690 2 -17 7 -38 10 -47 3 -10 7 -28 9
-40 18 -105 36 -206 39 -223 2 -11 7 -42 10 -70 6 -46 11 -87 21 -155 6 -42
16 -132 20 -190 3 -30 8 -91 12 -135 15 -176 7 -855 -12 -965 -2 -14 -6 -56
-9 -95 -3 -38 -8 -81 -10 -95 -3 -14 -12 -74 -20 -135 -9 -60 -18 -119 -20
-130 -2 -11 -7 -38 -11 -60 -4 -22 -9 -51 -12 -65 -2 -14 -9 -45 -15 -70 -5
-25 -12 -58 -15 -75 -15 -87 -123 -490 -193 -720 -40 -129 -132 -382 -177
-485 -110 -250 -334 -653 -436 -785 -4 -5 -32 -43 -61 -82 -260 -354 -606
-686 -971 -932 -188 -127 -313 -200 -530 -306 -217 -106 -469 -204 -715 -278
-168 -51 -546 -141 -685 -163 -21 -3 -47 -8 -59 -10 -11 -2 -37 -7 -56 -10
-19 -2 -46 -7 -60 -10 -56 -10 -67 -12 -115 -18 -27 -4 -57 -9 -65 -11 -8 -2
-40 -7 -70 -10 -30 -3 -68 -7 -85 -9 -16 -2 -66 -7 -110 -11 -44 -4 -87 -9
-96 -10 -99 -18 -717 -25 -929 -11 -63 4 -135 9 -160 11 -57 4 -177 15 -210
20 -14 2 -52 7 -85 11 -33 3 -67 7 -75 9 -8 1 -40 6 -70 10 -65 8 -64 8 -295
47 -290 49 -345 55 -345 41 0 -42 261 -156 555 -242 87 -25 252 -68 285 -75
14 -2 66 -14 115 -25 78 -17 185 -38 290 -56 33 -6 148 -22 208 -30 92 -12
116 -15 180 -20 38 -4 83 -8 100 -10 184 -23 915 -23 1037 0 11 2 55 7 98 10
42 3 91 8 107 10 40 6 89 12 150 20 98 13 224 35 371 65 99 20 435 105 464
117 8 3 20 7 25 8 6 2 65 21 131 43 919 306 1725 841 2365 1572 299 341 583
768 781 1171 97 198 108 221 108 236 0 7 5 13 10 13 6 0 10 6 10 14 0 8 14 45
31 83 112 249 295 833 333 1063 3 19 8 46 11 60 13 61 54 311 60 365 4 33 9
62 10 65 2 3 6 48 10 100 4 52 9 104 11 115 7 37 17 298 17 450 0 125 -8 358
-18 480 -4 55 -17 190 -20 205 -5 27 -15 94 -20 140 -4 25 -13 83 -21 130 -9
47 -17 94 -19 105 -11 68 -30 153 -51 240 -14 55 -27 107 -29 116 -21 96 -104
363 -163 524 -126 342 -352 796 -532 1067 -22 32 -40 61 -40 63 0 8 -176 254
-268 375 -191 250 -337 416 -567 645 -208 207 -337 324 -535 485 -131 106
-424 320 -439 320 -5 0 -11 3 -13 8 -18 41 -577 354 -728 407 -121 43 -184 56
-222 48z"/>
<path d="M11370 11145 c-27 -33 -1 -90 190 -410 210 -351 302 -523 428 -795
137 -295 280 -712 360 -1050 24 -97 69 -321 77 -377 3 -21 10 -60 15 -88 6
-27 12 -68 15 -90 3 -22 8 -51 10 -65 3 -14 7 -45 10 -70 3 -25 8 -56 10 -70
2 -14 7 -54 10 -90 4 -36 8 -78 10 -95 2 -16 7 -75 11 -130 4 -55 8 -118 10
-140 4 -55 4 -560 -1 -615 -2 -25 -6 -89 -10 -143 -3 -53 -8 -105 -9 -115 -2
-9 -7 -48 -11 -85 -3 -37 -8 -76 -10 -85 -1 -9 -6 -39 -9 -67 -4 -27 -9 -66
-13 -85 -22 -132 -54 -295 -63 -325 -5 -16 -11 -41 -14 -55 -4 -23 -27 -110
-56 -215 -45 -158 -122 -376 -192 -540 -205 -482 -455 -875 -860 -1348 -101
-119 -454 -463 -586 -572 -218 -180 -466 -350 -661 -454 l-23 -13 7 67 c3 36
8 74 10 83 1 9 6 46 10 82 4 36 8 72 10 80 2 8 6 44 10 80 4 36 8 72 10 80 3
16 16 125 19 151 0 9 58 72 127 140 134 133 150 151 215 244 67 97 99 170 85
194 -9 15 -75 -20 -157 -81 -32 -25 -97 -71 -143 -103 l-84 -58 7 64 c4 35 9
79 12 97 9 70 13 99 20 157 4 33 7 65 7 72 0 6 41 26 91 43 108 37 299 129
412 197 260 158 539 417 751 698 53 71 223 321 223 329 0 2 23 43 51 92 189
329 376 805 429 1092 5 31 12 68 15 82 3 14 10 59 16 100 5 41 12 85 14 98 26
153 26 627 0 802 -2 14 -6 48 -10 75 -11 93 -16 120 -36 225 -12 58 -23 116
-25 129 -3 14 -7 28 -9 31 -2 4 -7 21 -10 38 -22 126 -137 469 -237 707 -202
482 -564 1047 -843 1314 l-66 64 6 61 c4 34 8 68 10 76 2 8 6 44 10 80 4 36 9
73 11 84 15 79 13 160 -4 199 -54 121 -172 180 -308 153 -12 -2 -66 -9 -120
-16 -55 -6 -110 -13 -124 -15 -14 -2 -47 -7 -75 -10 -27 -3 -66 -8 -85 -10
-19 -3 -57 -7 -85 -10 -27 -3 -61 -8 -75 -10 -14 -3 -52 -7 -85 -11 -33 -3
-68 -8 -78 -10 -10 -2 -45 -6 -78 -9 -33 -4 -69 -8 -79 -10 -10 -2 -50 -7 -87
-10 -37 -4 -75 -8 -83 -10 -8 -2 -40 -7 -70 -10 -86 -9 -98 -11 -325 -40 -16
-2 -73 -9 -125 -15 -52 -6 -106 -13 -120 -15 -77 -11 -110 -15 -155 -20 -56
-6 -84 -10 -200 -25 -44 -5 -100 -12 -125 -15 -25 -3 -61 -7 -80 -10 -19 -3
-57 -7 -85 -11 -27 -3 -61 -7 -75 -9 -14 -2 -50 -7 -80 -10 -30 -3 -66 -8 -80
-10 -14 -2 -50 -6 -80 -10 -51 -5 -95 -11 -160 -20 -14 -2 -68 -9 -120 -15
-52 -5 -111 -12 -130 -15 -19 -3 -55 -7 -80 -10 -25 -3 -56 -7 -70 -10 -28 -4
-84 -11 -175 -21 -33 -3 -69 -8 -80 -10 -19 -4 -59 -9 -150 -19 -41 -4 -53 -6
-240 -30 -60 -8 -135 -17 -165 -21 -30 -3 -66 -8 -80 -9 -14 -2 -51 -7 -83
-10 -32 -4 -68 -8 -79 -10 -11 -3 -53 -7 -92 -11 -39 -3 -74 -8 -77 -10 -3 -2
-33 -6 -66 -9 -33 -3 -73 -7 -89 -9 -16 -3 -51 -7 -79 -11 -27 -3 -81 -10
-120 -15 -183 -24 -183 -24 -285 -34 -36 -4 -72 -9 -80 -11 -8 -2 -44 -7 -80
-10 -36 -4 -72 -8 -80 -10 -8 -1 -44 -6 -80 -10 -36 -4 -73 -9 -82 -10 -9 -2
-44 -6 -77 -10 -33 -3 -68 -7 -78 -9 -10 -2 -45 -7 -78 -10 -82 -10 -112 -14
-170 -21 -27 -4 -63 -8 -80 -10 -16 -2 -52 -7 -80 -10 -27 -3 -61 -7 -75 -10
-14 -2 -45 -6 -70 -9 -94 -11 -306 -37 -330 -41 -14 -2 -52 -6 -85 -10 -33 -3
-71 -8 -85 -10 -14 -2 -50 -6 -80 -10 -30 -4 -66 -8 -80 -10 -33 -5 -273 -35
-330 -41 -25 -3 -56 -7 -70 -9 -14 -2 -50 -7 -80 -10 -30 -3 -66 -8 -80 -10
-14 -2 -50 -7 -80 -10 -30 -4 -66 -8 -80 -10 -14 -2 -50 -7 -80 -10 -30 -3
-66 -8 -80 -10 -14 -2 -54 -6 -90 -10 -151 -15 -225 -53 -278 -143 l-27 -47 0
-1235 0 -1235 22 -40 c12 -24 393 -412 942 -961 l920 -921 -85 -62 c-132 -96
-268 -214 -394 -340 -111 -112 -189 -201 -175 -201 4 0 60 36 126 80 65 44
123 80 128 80 5 0 11 3 13 8 12 28 502 262 549 262 11 0 589 -572 589 -583 0
-2 -26 -15 -57 -28 -32 -13 -84 -38 -116 -56 -33 -18 -61 -33 -63 -33 -3 0
-40 -26 -82 -57 -167 -123 -305 -293 -394 -483 -31 -67 -92 -242 -103 -295
-30 -144 -43 -254 -43 -364 0 -171 20 -221 43 -106 5 22 9 42 10 45 1 3 7 25
14 50 54 189 131 345 241 485 192 246 534 451 849 509 33 6 39 0 640 -600 333
-334 595 -601 582 -594 -14 7 -30 17 -35 22 -10 8 -73 54 -145 106 -45 32
-296 230 -331 262 -19 17 -60 53 -90 79 -30 27 -84 73 -120 105 -88 76 -112
76 -68 -1 21 -35 117 -167 163 -222 159 -192 326 -367 554 -581 116 -109 420
-366 470 -398 14 -9 28 -19 31 -23 11 -13 241 -180 355 -256 105 -71 357 -228
396 -247 8 -3 34 -18 59 -32 65 -38 353 -184 435 -221 197 -89 516 -208 693
-257 128 -36 234 -64 262 -70 14 -2 48 -10 75 -16 28 -6 74 -16 103 -21 126
-22 169 -29 207 -34 22 -4 49 -8 60 -9 11 -2 54 -7 95 -11 41 -3 89 -9 105
-12 52 -9 636 -11 720 -2 44 4 112 11 150 14 39 4 77 9 86 10 9 2 40 6 70 10
30 3 61 8 69 10 8 2 35 7 60 10 25 4 77 13 115 22 39 8 80 16 91 19 163 32
558 156 699 218 17 8 80 35 140 62 61 26 115 51 120 55 6 4 55 30 110 59 544
285 1057 750 1398 1268 270 410 469 864 596 1362 22 85 42 166 45 180 2 14 10
48 16 75 7 28 14 64 16 80 3 17 9 50 14 75 5 25 12 61 14 80 11 78 17 116 21
140 3 14 7 48 10 75 3 28 7 66 10 85 26 210 38 432 38 700 0 181 -9 456 -18
525 -2 17 -6 62 -10 100 -4 39 -11 98 -16 133 -5 34 -12 84 -15 110 -6 60 -30
191 -56 312 -12 52 -22 104 -24 115 -11 77 -150 547 -184 620 -4 11 -23 58
-40 105 -200 538 -556 1150 -964 1655 -275 340 -651 718 -959 965 -11 8 -24
20 -31 25 -17 16 -193 146 -266 197 -298 208 -582 331 -630 273z m-416 -867
c13 -29 57 -123 99 -208 230 -476 378 -865 477 -1255 34 -132 45 -183 65 -285
9 -44 34 -203 40 -255 4 -27 8 -61 10 -75 24 -161 24 -541 0 -735 -38 -316
-112 -574 -247 -867 -48 -106 -167 -321 -180 -326 -4 -2 -8 -8 -8 -14 0 -16
-111 -174 -203 -288 -92 -115 -228 -257 -322 -335 -33 -27 -69 -58 -80 -68
-26 -24 -222 -157 -230 -157 -4 0 -20 -10 -37 -21 l-30 -22 7 64 c4 35 8 71
10 79 1 8 6 42 9 75 4 33 9 76 11 95 35 273 45 354 50 400 3 30 8 66 10 80 5
31 23 169 30 235 3 28 12 100 20 160 8 61 17 130 20 155 9 79 36 294 40 320 2
14 6 50 10 80 7 61 14 122 20 160 2 14 7 54 10 90 4 36 8 72 10 80 1 8 6 42 9
75 4 33 9 71 11 85 2 14 11 84 20 155 9 72 18 144 20 160 11 82 25 196 30 245
4 30 8 66 10 80 2 14 6 48 10 75 3 28 10 86 16 130 14 113 19 155 24 195 2 19
7 54 10 78 3 23 7 59 10 80 6 47 13 105 20 160 3 23 7 60 10 82 3 22 7 58 10
80 3 22 7 58 10 80 3 22 7 59 10 83 3 23 8 59 10 80 6 47 14 105 20 160 3 23
8 59 10 80 3 20 7 54 10 75 2 20 7 57 10 82 3 25 7 62 10 83 10 72 15 112 20
157 8 68 16 132 20 160 11 74 18 137 17 153 -1 29 7 19 32 -35z m-1922 -7650
c-4 -4 -36 -10 -72 -13 -36 -4 -99 -10 -140 -15 -74 -7 -427 -4 -485 4 -16 3
-56 8 -88 11 -31 4 -59 10 -61 13 -2 4 189 7 424 7 236 0 426 -3 422 -7z"/>
<path d="M7109 1899 c-198 -21 -416 -131 -590 -300 -88 -85 -159 -183 -159
-220 0 -16 47 -3 91 26 79 52 270 136 364 161 80 21 124 27 220 28 172 1 246
-14 382 -82 56 -27 231 -138 243 -153 14 -17 186 -117 265 -155 85 -40 208
-83 285 -100 19 -4 37 -8 40 -9 3 -1 25 -5 50 -9 25 -5 54 -10 65 -12 131 -25
386 -19 555 12 179 34 387 109 377 138 -2 7 -38 12 -98 12 -120 2 -307 13
-339 19 -14 3 -45 8 -69 11 -84 10 -309 72 -411 113 -56 22 -139 62 -184 87
-89 51 -478 245 -623 312 -233 107 -337 134 -464 121z"/>
</g>
</svg>
